<svg width="186" height="60" viewBox="0 0 186 60" fill="none" xmlns="http://www.w3.org/2000/svg">
<path d="M76.386 33H84.612V30.75H78.96V20.22H76.386V33ZM90.5242 33.162C93.2602 33.162 95.1862 31.29 95.1862 28.608C95.1862 25.908 93.2602 24.072 90.5242 24.072C87.7162 24.072 85.8442 25.98 85.8442 28.608C85.8442 31.236 87.7162 33.162 90.5242 33.162ZM90.5242 31.038C89.1742 31.038 88.2382 29.976 88.2382 28.608C88.2382 27.222 89.1562 26.178 90.5242 26.178C91.8202 26.178 92.7922 27.168 92.7922 28.608C92.7922 30.048 91.7842 31.038 90.5242 31.038ZM99.099 33H101.295L104.751 24.198H102.285L100.215 30.102H100.197L98.163 24.198H95.643L99.099 33ZM113.839 28.518C113.839 25.944 112.111 24.072 109.627 24.072C107.017 24.072 105.163 25.908 105.163 28.59C105.163 31.344 107.071 33.162 109.771 33.162C111.733 33.162 112.867 32.442 113.605 31.488L112.075 30.066C111.607 30.642 110.923 31.056 109.933 31.056C108.745 31.056 107.899 30.426 107.611 29.364H113.785C113.803 29.22 113.839 28.806 113.839 28.518ZM109.609 26.124C110.635 26.124 111.265 26.736 111.499 27.672H107.629C107.899 26.664 108.655 26.124 109.609 26.124ZM115.884 33H118.386V28.626H120.366C123.174 28.626 125.064 27.276 125.064 24.468C125.064 22.02 123.714 20.22 120.618 20.22H115.884V33ZM118.386 26.394V22.47H120.222C121.68 22.47 122.436 23.244 122.436 24.432C122.436 25.602 121.68 26.394 120.096 26.394H118.386ZM130.45 33.162C131.602 33.162 132.484 32.73 133.096 31.938L133.132 31.956V33H135.382V24.198H133.024V25.206L132.988 25.224C132.358 24.468 131.422 24.072 130.396 24.072C128.038 24.072 126.256 25.962 126.256 28.626C126.256 31.344 128.038 33.162 130.45 33.162ZM130.9 31.038C129.568 31.038 128.65 30.048 128.65 28.644C128.65 27.132 129.622 26.178 130.9 26.178C132.16 26.178 133.132 27.222 133.132 28.644C133.132 30.084 132.106 31.038 130.9 31.038ZM137.623 33H139.981V28.932C139.981 27.6 140.755 26.628 142.213 26.628C142.357 26.628 142.591 26.628 142.843 26.646V24.072H142.663C141.637 24.072 140.683 24.576 140.017 25.476H139.981V24.198H137.623V33ZM147.038 33.162C148.226 33.162 148.802 32.91 149.36 32.604L148.766 30.714C148.37 30.912 147.938 31.02 147.65 31.02C147.092 31.02 146.894 30.66 146.894 29.886V26.16H149.27V24.198H146.894V21.084L144.536 21.336V24.198H143.492V26.16H144.536V30.228C144.536 32.208 145.526 33.162 147.038 33.162ZM150.912 33H153.27V28.59C153.27 27.006 154.062 26.178 155.25 26.178C156.348 26.178 156.942 26.7 156.942 28.374V33H159.3V27.78C159.3 25.08 157.986 24.072 156.114 24.072C155.016 24.072 154.008 24.504 153.306 25.332H153.27V24.198H150.912V33ZM169.684 28.518C169.684 25.944 167.956 24.072 165.472 24.072C162.862 24.072 161.008 25.908 161.008 28.59C161.008 31.344 162.916 33.162 165.616 33.162C167.578 33.162 168.712 32.442 169.45 31.488L167.92 30.066C167.452 30.642 166.768 31.056 165.778 31.056C164.59 31.056 163.744 30.426 163.456 29.364H169.63C169.648 29.22 169.684 28.806 169.684 28.518ZM165.454 26.124C166.48 26.124 167.11 26.736 167.344 27.672H163.474C163.744 26.664 164.5 26.124 165.454 26.124ZM171.514 33H173.872V28.932C173.872 27.6 174.646 26.628 176.104 26.628C176.248 26.628 176.482 26.628 176.734 26.646V24.072H176.554C175.528 24.072 174.574 24.576 173.908 25.476H173.872V24.198H171.514V33ZM181.055 33.162C183.359 33.162 184.457 31.974 184.457 30.426C184.457 28.68 183.341 28.266 181.433 27.564C180.569 27.24 180.137 26.988 180.137 26.628C180.137 26.16 180.605 25.98 180.965 25.98C181.613 25.98 182.405 26.268 183.071 26.916L184.223 25.17C183.215 24.396 182.225 24.072 181.019 24.072C179.201 24.072 177.833 25.098 177.833 26.682C177.833 28.392 179.093 29.076 180.551 29.562C181.685 29.94 182.135 30.138 182.135 30.516C182.135 30.948 181.757 31.236 181.073 31.236C180.101 31.236 179.345 30.894 178.625 30.228L177.491 31.866C178.445 32.694 179.651 33.162 181.055 33.162Z" fill="#FF3471"/>
<path d="M37.0801 28.44C33.8761 25.2 30.7801 22.056 27.6721 18.936C24.4201 15.684 19.7401 15.648 16.5721 18.816C13.4401 21.948 13.4881 26.676 16.7281 29.94C21.1801 34.416 25.6441 38.868 30.1201 43.32C30.4561 43.656 30.8521 43.92 31.3561 44.34C30.3721 45.216 29.5441 45.948 28.5601 46.824C24.6001 42.816 20.5921 38.76 16.5841 34.692C15.7321 33.828 14.8681 32.976 14.0281 32.112C9.72009 27.72 9.78009 20.748 14.1601 16.368C18.4921 12.024 25.5721 11.964 29.9401 16.272C33.1081 19.404 36.2161 22.596 39.3481 25.752C39.4081 25.812 39.4321 25.896 39.5041 26.028C38.7481 26.772 37.9921 27.528 37.0801 28.44Z" fill="#FF3471"/>
<path d="M34.4042 19.272C33.7082 18.468 33.0362 17.688 32.3762 16.92C34.5482 14.532 39.0002 13.728 42.4202 15.06C49.2362 17.712 51.3242 26.112 46.3562 31.488C43.0442 35.064 39.4562 38.388 35.9882 41.82C35.8082 42 35.6042 42.156 35.4242 42.312C32.2802 39.12 29.1602 35.964 25.9202 32.676C26.5802 32.136 27.4082 31.476 28.4042 30.684C30.4802 32.892 32.7722 35.328 35.4962 38.22C36.3242 37.14 36.8642 36.288 37.5482 35.58C39.5042 33.564 41.5202 31.608 43.4882 29.616C46.1042 26.976 46.4042 23.088 44.2202 20.316C42.0242 17.532 38.2802 16.956 35.0162 18.9C34.8482 19.02 34.6682 19.116 34.4042 19.272Z" fill="white"/>
</svg>
