<svg width="375" height="164" viewBox="0 0 375 164" fill="none" xmlns="http://www.w3.org/2000/svg">
<path d="M-91.3014 0.461555C-91.5543 0.0757378 -92.0721 -0.0320222 -92.4579 0.220866C-92.8437 0.473754 -92.9515 0.991526 -92.6986 1.37734L-91.3014 0.461555ZM109.408 162.69L109.456 161.856L109.408 162.69ZM296.174 83.624L296.561 84.3644L296.174 83.624ZM395.188 70.5474L395.373 69.7329L395.188 70.5474ZM501.245 136.263C502.407 138.431 505.107 139.247 507.276 138.084C509.444 136.922 510.26 134.222 509.097 132.053C507.935 129.885 505.235 129.069 503.066 130.232C500.898 131.394 500.082 134.094 501.245 136.263ZM-92.6986 1.37734C-91.9581 2.50704 -91.1999 3.6483 -90.4244 4.80034L-89.0386 3.86749C-89.8103 2.72097 -90.5648 1.5854 -91.3014 0.461555L-92.6986 1.37734ZM-85.7082 11.6379C-84.1448 13.8526 -82.525 16.0994 -80.8518 18.3734L-79.5062 17.3834C-81.1732 15.1179 -82.7866 12.8799 -84.3434 10.6745L-85.7082 11.6379ZM-75.873 25.0132C-74.2194 27.1783 -72.522 29.363 -70.7833 31.563L-69.4727 30.5271C-71.2057 28.3342 -72.8975 26.1569 -74.5453 23.9993L-75.873 25.0132ZM-65.5907 38.0275C-63.8619 40.1459 -62.0978 42.2747 -60.3007 44.4103L-59.0225 43.3348C-60.8143 41.2054 -62.573 39.0831 -64.2965 36.9712L-65.5907 38.0275ZM-54.917 50.7139C-53.1204 52.7868 -51.2948 54.8629 -49.4424 56.9392L-48.1958 55.827C-50.043 53.7567 -51.8632 51.6866 -53.6547 49.6197L-54.917 50.7139ZM-43.8785 63.0862C-42.0178 65.1126 -40.1333 67.1362 -38.2267 69.1539L-37.0124 68.0066C-38.9135 65.9947 -40.7927 63.977 -42.648 61.9563L-43.8785 63.0862ZM-32.4875 75.1404C-30.5645 77.1174 -28.6218 79.0858 -26.6611 81.0428L-25.4809 79.8605C-27.4357 77.9093 -29.3727 75.9468 -31.29 73.9756L-32.4875 75.1404ZM-20.7471 86.8575C-18.7618 88.7799 -16.7605 90.6883 -14.7447 92.5798L-13.6016 91.3616C-15.6108 89.4762 -17.6059 87.5738 -19.585 85.6574L-20.7471 86.8575ZM-8.65247 98.2045C-6.60257 100.066 -4.5399 101.908 -2.46623 103.727L-1.3645 102.472C-3.43083 100.659 -5.48638 98.8232 -7.52939 96.9678L-8.65247 98.2045ZM3.81904 109.143C5.93898 110.935 8.06844 112.702 10.2056 114.44L11.2596 113.144C9.13101 111.413 7.00981 109.653 4.89783 107.867L3.81904 109.143ZM16.6975 119.611C18.8926 121.322 21.094 123 23.2995 124.641L24.297 123.301C22.1017 121.667 19.9102 119.997 17.7245 118.293L16.6975 119.611ZM30.0175 129.518C32.2959 131.13 34.5768 132.699 36.8581 134.224L37.7863 132.835C35.5178 131.319 33.249 129.758 30.9822 128.154L30.0175 129.518ZM43.8289 138.738C46.2013 140.224 48.572 141.658 50.9384 143.035L51.7787 141.591C49.4287 140.224 47.0736 138.799 44.716 137.322L43.8289 138.738ZM58.1955 147.085C60.6747 148.408 63.1468 149.664 65.609 150.849L66.3332 149.343C63.8931 148.169 61.4418 146.924 58.982 145.611L58.1955 147.085ZM73.1869 154.278C75.7847 155.377 78.3683 156.39 80.9344 157.311L81.4986 155.738C78.9635 154.829 76.4088 153.827 73.8379 152.739L73.1869 154.278ZM88.8513 159.871C91.5765 160.652 94.2777 161.32 96.9507 161.867L97.2855 160.23C94.6575 159.692 91.9982 159.035 89.3117 158.265L88.8513 159.871ZM105.214 163.175C106.606 163.328 107.988 163.445 109.36 163.524L109.456 161.856C108.114 161.779 106.761 161.665 105.397 161.515L105.214 163.175ZM109.36 163.524C110.792 163.607 112.228 163.66 113.67 163.684L113.698 162.014C112.279 161.99 110.865 161.938 109.456 161.856L109.36 163.524ZM122.307 163.5C125.153 163.334 128.014 163.067 130.886 162.707L130.679 161.05C127.841 161.405 125.017 161.669 122.209 161.832L122.307 163.5ZM139.401 161.38C142.205 160.86 145.016 160.259 147.831 159.584L147.441 157.96C144.653 158.628 141.871 159.223 139.097 159.737L139.401 161.38ZM156.153 157.383C158.892 156.593 161.63 155.74 164.366 154.83L163.839 153.245C161.123 154.148 158.406 154.995 155.69 155.778L156.153 157.383ZM172.477 151.968C175.153 150.971 177.824 149.925 180.486 148.837L179.853 147.29C177.207 148.373 174.552 149.412 171.893 150.403L172.477 151.968ZM188.396 145.47C191.012 144.314 193.618 143.121 196.209 141.899L195.496 140.388C192.917 141.605 190.324 142.791 187.72 143.942L188.396 145.47ZM203.937 138.146C206.503 136.865 209.053 135.56 211.583 134.236L210.809 132.756C208.288 134.075 205.747 135.376 203.191 136.651L203.937 138.146ZM219.154 130.189C221.679 128.812 224.18 127.422 226.655 126.025L225.834 124.57C223.366 125.964 220.871 127.35 218.354 128.722L219.154 130.189ZM234.107 121.753C236.606 120.3 239.073 118.846 241.504 117.398L240.65 115.962C238.222 117.408 235.76 118.859 233.267 120.308L234.107 121.753ZM248.85 112.98C251.334 111.473 253.775 109.98 256.169 108.508L255.294 107.085C252.902 108.555 250.464 110.047 247.984 111.551L248.85 112.98ZM263.476 104.002C265.961 102.465 268.386 100.965 270.747 99.5085L269.87 98.0866C267.508 99.5433 265.082 101.045 262.598 102.581L263.476 104.002ZM278.074 95.0158C280.612 93.4723 283.057 92.0024 285.404 90.6205L284.556 89.181C282.201 90.568 279.748 92.0423 277.206 93.5885L278.074 95.0158ZM292.805 86.3843C294.098 85.6705 295.351 84.9961 296.561 84.3644L295.788 82.8835C294.565 83.522 293.301 84.2026 291.998 84.9217L292.805 86.3843ZM296.561 84.3644C297.837 83.6979 299.102 83.0543 300.353 82.4329L299.61 80.9366C298.348 81.563 297.074 82.2118 295.788 82.8835L296.561 84.3644ZM308.049 78.8204C310.722 77.6389 313.336 76.5612 315.895 75.5805L315.298 74.0205C312.712 75.0116 310.071 76.1 307.373 77.2924L308.049 78.8204ZM323.904 72.7625C326.691 71.871 329.409 71.0957 332.064 70.4264L331.656 68.8065C328.966 69.4845 326.214 70.2694 323.395 71.1714L323.904 72.7625ZM340.339 68.6355C343.21 68.1177 346.006 67.7226 348.734 67.4352L348.558 65.7739C345.791 66.0655 342.954 66.4664 340.042 66.9915L340.339 68.6355ZM357.185 66.8661C360.082 66.781 362.902 66.8108 365.655 66.9346L365.73 65.2658C362.938 65.1402 360.076 65.1099 357.136 65.1962L357.185 66.8661ZM374.104 67.6104C376.967 67.9359 379.763 68.3476 382.502 68.8186L382.785 67.1722C380.019 66.6966 377.192 66.2801 374.293 65.9505L374.104 67.6104ZM390.848 70.4425C392.244 70.7415 393.629 71.0493 395.003 71.3618L395.373 69.7329C393.994 69.4192 392.603 69.1098 391.198 68.809L390.848 70.4425ZM395.003 71.3618C396.164 71.6261 397.422 71.966 398.767 72.3768L399.255 70.7791C397.879 70.3589 396.582 70.0078 395.373 69.7329L395.003 71.3618ZM406.264 75.0318C408.573 75.9403 411.021 76.9732 413.581 78.1134L414.261 76.5873C411.682 75.4389 409.211 74.3962 406.876 73.4773L406.264 75.0318ZM420.808 81.4692C423.132 82.5888 425.517 83.7736 427.946 85.0128L428.705 83.5248C426.266 82.2803 423.869 81.0898 421.533 79.9642L420.808 81.4692ZM435.008 88.7018C437.325 89.939 439.665 91.2141 442.015 92.5184L442.825 91.0578C440.468 89.7493 438.12 88.4699 435.795 87.2282L435.008 88.7018ZM448.962 96.4441C451.267 97.7687 453.567 99.1131 455.85 100.469L456.703 99.0329C454.413 97.6728 452.106 96.3244 449.795 94.9958L448.962 96.4441ZM462.681 104.593C464.972 105.998 467.23 107.407 469.443 108.81L470.338 107.4C468.118 105.992 465.852 104.578 463.555 103.169L462.681 104.593ZM476.15 113.142C478.436 114.646 480.649 116.133 482.774 117.591L483.719 116.214C481.585 114.749 479.362 113.256 477.069 111.747L476.15 113.142ZM489.29 122.182C491.577 123.839 493.707 125.438 495.65 126.959L496.68 125.644C494.718 124.108 492.571 122.496 490.271 120.83L489.29 122.182ZM501.754 132.039C502.82 132.998 503.762 133.9 504.57 134.738L505.772 133.578C504.931 132.706 503.959 131.777 502.872 130.797L501.754 132.039Z" fill="#6959C9" fill-opacity="0.14"/>
</svg>
