<svg width="142" height="51" viewBox="0 0 142 51" fill="none" xmlns="http://www.w3.org/2000/svg">
<path d="M51.1577 27.7054H58.0287V25.8261H53.3077V17.0306H51.1577V27.7054ZM62.9669 27.8408C65.2523 27.8408 66.861 26.2771 66.861 24.0369C66.861 21.7817 65.2523 20.2481 62.9669 20.2481C60.6215 20.2481 59.0579 21.8418 59.0579 24.0369C59.0579 26.232 60.6215 27.8408 62.9669 27.8408ZM62.9669 26.0666C61.8393 26.0666 61.0575 25.1796 61.0575 24.0369C61.0575 22.8792 61.8243 22.0072 62.9669 22.0072C64.0495 22.0072 64.8614 22.8341 64.8614 24.0369C64.8614 25.2397 64.0194 26.0666 62.9669 26.0666ZM70.1293 27.7054H71.9636L74.8503 20.3533H72.7905L71.0615 25.2848H71.0465L69.3475 20.3533H67.2426L70.1293 27.7054ZM82.4409 23.9617C82.4409 21.8117 80.9975 20.2481 78.9227 20.2481C76.7426 20.2481 75.194 21.7817 75.194 24.0219C75.194 26.3222 76.7877 27.8408 79.043 27.8408C80.6818 27.8408 81.629 27.2394 82.2454 26.4425L80.9674 25.2547C80.5765 25.7359 80.0052 26.0817 79.1783 26.0817C78.186 26.0817 77.4793 25.5554 77.2388 24.6684H82.3958C82.4108 24.5481 82.4409 24.2023 82.4409 23.9617ZM78.9076 21.9621C79.7646 21.9621 80.2909 22.4733 80.4863 23.2551H77.2538C77.4793 22.4131 78.1108 21.9621 78.9076 21.9621ZM84.1494 27.7054H86.2393V24.0519H87.8932C90.2386 24.0519 91.8173 22.9243 91.8173 20.5789C91.8173 18.5341 90.6897 17.0306 88.1036 17.0306H84.1494V27.7054ZM86.2393 22.1876V18.91H87.7729C88.9907 18.91 89.6222 19.5565 89.6222 20.5488C89.6222 21.5261 88.9907 22.1876 87.6676 22.1876H86.2393ZM96.3159 27.8408C97.2781 27.8408 98.0149 27.4799 98.526 26.8184L98.5561 26.8334V27.7054H100.435V20.3533H98.4659V21.1953L98.4358 21.2103C97.9096 20.5789 97.1278 20.2481 96.2708 20.2481C94.3012 20.2481 92.8128 21.8268 92.8128 24.0519C92.8128 26.3222 94.3012 27.8408 96.3159 27.8408ZM96.6918 26.0666C95.5792 26.0666 94.8124 25.2397 94.8124 24.067C94.8124 22.804 95.6243 22.0072 96.6918 22.0072C97.7442 22.0072 98.5561 22.8792 98.5561 24.067C98.5561 25.2698 97.6991 26.0666 96.6918 26.0666ZM102.308 27.7054H104.277V24.3075C104.277 23.195 104.924 22.3831 106.141 22.3831C106.262 22.3831 106.457 22.3831 106.668 22.3981V20.2481H106.517C105.66 20.2481 104.864 20.6691 104.307 21.4208H104.277V20.3533H102.308V27.7054ZM110.172 27.8408C111.164 27.8408 111.645 27.6303 112.111 27.3747L111.615 25.796C111.284 25.9614 110.924 26.0516 110.683 26.0516C110.217 26.0516 110.052 25.7509 110.052 25.1044V21.9922H112.036V20.3533H110.052V17.7523L108.082 17.9628V20.3533H107.21V21.9922H108.082V25.3901C108.082 27.0439 108.909 27.8408 110.172 27.8408ZM113.408 27.7054H115.377V24.0219C115.377 22.6988 116.039 22.0072 117.031 22.0072C117.948 22.0072 118.444 22.4432 118.444 23.8415V27.7054H120.414V23.3453C120.414 21.0901 119.316 20.2481 117.753 20.2481C116.836 20.2481 115.994 20.6089 115.407 21.3006H115.377V20.3533H113.408V27.7054ZM129.087 23.9617C129.087 21.8117 127.644 20.2481 125.569 20.2481C123.389 20.2481 121.841 21.7817 121.841 24.0219C121.841 26.3222 123.434 27.8408 125.69 27.8408C127.328 27.8408 128.276 27.2394 128.892 26.4425L127.614 25.2547C127.223 25.7359 126.652 26.0817 125.825 26.0817C124.833 26.0817 124.126 25.5554 123.885 24.6684H129.042C129.057 24.5481 129.087 24.2023 129.087 23.9617ZM125.554 21.9621C126.411 21.9621 126.937 22.4733 127.133 23.2551H123.9C124.126 22.4131 124.757 21.9621 125.554 21.9621ZM130.616 27.7054H132.585V24.3075C132.585 23.195 133.232 22.3831 134.449 22.3831C134.57 22.3831 134.765 22.3831 134.976 22.3981V20.2481H134.825C133.968 20.2481 133.172 20.6691 132.615 21.4208H132.585V20.3533H130.616V27.7054ZM138.585 27.8408C140.51 27.8408 141.427 26.8485 141.427 25.5554C141.427 24.0971 140.495 23.7512 138.901 23.1649C138.179 22.8943 137.818 22.6838 137.818 22.3831C137.818 21.9922 138.209 21.8418 138.51 21.8418C139.051 21.8418 139.713 22.0824 140.269 22.6236L141.231 21.1652C140.389 20.5187 139.562 20.2481 138.555 20.2481C137.037 20.2481 135.894 21.1051 135.894 22.4282C135.894 23.8565 136.946 24.4278 138.164 24.8338C139.111 25.1495 139.487 25.3149 139.487 25.6306C139.487 25.9915 139.172 26.232 138.6 26.232C137.788 26.232 137.157 25.9464 136.555 25.3901L135.608 26.7582C136.405 27.4498 137.412 27.8408 138.585 27.8408Z" fill="#FF3471"/>
<path d="M30.9721 23.7552C28.2959 21.0489 25.7098 18.4228 23.1138 15.8168C20.3975 13.1005 16.4884 13.0704 13.8423 15.7165C11.2262 18.3326 11.2663 22.2818 13.9726 25.0081C17.6912 28.7468 21.4199 32.4655 25.1586 36.1841C25.4392 36.4648 25.77 36.6853 26.191 37.0361C25.3691 37.7678 24.6774 38.3792 23.8555 39.1109C20.5478 35.7632 17.2001 32.3753 13.8523 28.9774C13.1406 28.2557 12.4189 27.544 11.7173 26.8224C8.11895 23.1538 8.16906 17.3303 11.8276 13.6718C15.446 10.0433 21.3597 9.99323 25.0082 13.5916C27.6544 16.2077 30.2504 18.8739 32.8665 21.51C32.9166 21.5601 32.9366 21.6303 32.9968 21.7405C32.3653 22.362 31.7339 22.9935 30.9721 23.7552Z" fill="#FF3471"/>
<path d="M28.7374 16.0973C28.156 15.4258 27.5947 14.7743 27.0434 14.1328C28.8576 12.1381 32.5763 11.4666 35.4329 12.5792C41.1262 14.7943 42.8702 21.8106 38.7206 26.3011C35.9541 29.288 32.9572 32.0645 30.0604 34.9311C29.9101 35.0815 29.7397 35.2118 29.5893 35.3421C26.9632 32.6759 24.3572 30.0398 21.6509 27.2934C22.2022 26.8423 22.8938 26.291 23.7257 25.6295C25.4597 27.4738 27.3742 29.5085 29.6495 31.9241C30.3411 31.022 30.7921 30.3104 31.3635 29.719C32.9973 28.0351 34.6812 26.4013 36.325 24.7374C38.5101 22.5323 38.7607 19.2848 36.9364 16.9694C35.1022 14.644 31.9749 14.1628 29.2485 15.7866C29.1082 15.8869 28.9579 15.967 28.7374 16.0973Z" fill="white"/>
</svg>
