<svg width="18" height="12" viewBox="0 0 18 12" fill="none" xmlns="http://www.w3.org/2000/svg">
<path d="M17.1966 9.64497C17.1509 9.62809 17.1065 9.60797 17.0636 9.58478C15.219 8.41974 13.3749 7.25385 11.5314 6.08713C11.4939 6.06356 11.4581 6.03746 11.4009 5.99874L17.1966 2.18457V9.64497Z" fill="#F6F6F6"/>
<path d="M8.60134 0C11.0815 0 13.562 0 16.0428 0C16.5651 0 16.9633 0.272741 17.1173 0.726889C17.1594 0.848528 17.1514 0.927656 17.0231 1.01226C14.5344 2.64478 12.0481 4.28122 9.56393 5.9216C9.27435 6.11226 8.98267 6.30041 8.69646 6.49654C8.61902 6.54958 8.56725 6.54705 8.4898 6.49654C5.70206 4.65666 2.9125 2.81861 0.12111 0.982373C0.0394564 0.928919 0.028513 0.880937 0.0516623 0.791707C0.107219 0.581839 0.225764 0.394042 0.391327 0.253615C0.55689 0.113187 0.761515 0.0268776 0.977636 0.00631352C1.0555 -0.000420832 1.13421 0.000420987 1.2125 0.000420987L8.60134 0Z" fill="#F6F6F6"/>
<path d="M8.5885 11.8291H1.14494C0.621346 11.8291 0.223177 11.5563 0.0699707 11.1018C0.0312482 10.9873 0.0312481 10.9115 0.159201 10.8311C2.32429 9.46853 4.48588 8.1016 6.64396 6.73032C6.74455 6.66634 6.81232 6.66971 6.9087 6.73495C7.32539 7.01779 7.75428 7.28211 8.16676 7.57211C8.4576 7.77625 8.72108 7.78256 9.01403 7.57674C9.43493 7.28211 9.87308 7.00895 10.3007 6.7219C10.3315 6.69549 10.3705 6.68073 10.4111 6.68019C10.4516 6.67965 10.4911 6.69337 10.5225 6.71895C12.6966 8.09781 14.8722 9.4747 17.0494 10.8496C17.1462 10.9102 17.1567 10.9679 17.1289 11.0656C17.0685 11.271 16.9475 11.4534 16.7818 11.589C16.6161 11.7247 16.4133 11.8071 16.2 11.8257C16.1221 11.832 16.0434 11.8312 15.9651 11.8312L8.5885 11.8291Z" fill="#F6F6F6"/>
<path d="M0 2.18799L5.79028 6.003L0 9.6648V2.18799Z" fill="#F6F6F6"/>
</svg>
