<svg width="375" height="747" viewBox="0 0 375 747" fill="none" xmlns="http://www.w3.org/2000/svg">
<path d="M492.641 373.126C492.641 460.948 416.834 532.185 323.265 532.185C229.697 532.185 153.889 460.948 153.889 373.126C153.889 285.305 229.697 214.067 323.265 214.067C416.834 214.067 492.641 285.305 492.641 373.126Z" stroke="black" stroke-opacity="0.09" stroke-width="0.835276"/>
<path d="M587.907 373.126C587.907 510.365 469.448 621.662 323.265 621.662C177.082 621.662 58.6232 510.365 58.6232 373.126C58.6232 235.888 177.082 124.59 323.265 124.59C469.448 124.59 587.907 235.888 587.907 373.126Z" stroke="black" stroke-opacity="0.09" stroke-width="0.835276"/>
<path d="M720.113 373.126C720.113 578.943 542.464 745.835 323.266 745.835C104.067 745.835 -73.5824 578.943 -73.5824 373.126C-73.5824 167.309 104.067 0.417638 323.266 0.417638C542.464 0.417638 720.113 167.309 720.113 373.126Z" stroke="black" stroke-opacity="0.09" stroke-width="0.835276"/>
</svg>
